<svg xmlns="http://www.w3.org/2000/svg" xmlns:xlink="http://www.w3.org/1999/xlink" viewBox="0 0 293.25 63.4"><defs><style>.cls-1{fill:none;}.cls-2,.cls-8{fill:#0e55a2;}.cls-3{fill:#13bdc5;}.cls-4{fill:#00bcc4;}.cls-5{fill:#1ebdc3;}.cls-6{clip-path:url(#clip-path);}.cls-7{fill:url(#linear-gradient);}.cls-8{fill-rule:evenodd;}.cls-9{clip-path:url(#clip-path-2);}.cls-10{fill:url(#New_Gradient_Swatch_3);}</style><clipPath id="clip-path"><path class="cls-1" d="M55.56,20a1.78,1.78,0,0,0-1.77,1.78v10.7h-13V41a1.78,1.78,0,0,0,1.81,1.77l11-.22.23,11a1.77,1.77,0,0,0,1.77,1.73h6.85a1.77,1.77,0,0,0,1.77-1.77V21.73A1.78,1.78,0,0,0,62.46,20Z"/></clipPath><linearGradient id="linear-gradient" x1="40.75" y1="41.01" x2="64.19" y2="41.01" gradientUnits="userSpaceOnUse"><stop offset="0" stop-color="#2db7c4"/><stop offset="0.11" stop-color="#23b5c8"/><stop offset="0.29" stop-color="#0aaed2"/><stop offset="0.29" stop-color="#09aed2"/><stop offset="0.4" stop-color="#0ba5ce"/><stop offset="0.57" stop-color="#108ec4"/><stop offset="0.72" stop-color="#1573b8"/><stop offset="1" stop-color="#1c4a99"/></linearGradient><clipPath id="clip-path-2"><path class="cls-1" d="M74.16,7.84c-2.45,0-3.49,1.51-3.49,3.83v9.94a1.59,1.59,0,0,0,1.6,1.57h4.47a1.59,1.59,0,0,0,1.6-1.57V15.34c0-5,2.92-6.78,6.52-7.5H74.16Z"/></clipPath><linearGradient id="New_Gradient_Swatch_3" x1="69.89" y1="16.85" x2="86.36" y2="16.85" gradientUnits="userSpaceOnUse"><stop offset="0" stop-color="#2db7c4"/><stop offset="0.32" stop-color="#09aed2"/><stop offset="0.7" stop-color="#1573b8"/><stop offset="1" stop-color="#1c4a99"/></linearGradient></defs><g id="Layer_2" data-name="Layer 2"><g id="Layer_1-2" data-name="Layer 1"><path class="cls-2" d="M97.12,21.52H94.44V20h7.28v1.57H99.05V28.3H97.12Z"/><path class="cls-2" d="M108.08,28.3,106.47,26H104.7V28.3h-1.94V20h3.62a4.62,4.62,0,0,1,1.93.37,2.76,2.76,0,0,1,1.25,1.05A2.84,2.84,0,0,1,110,23a2.79,2.79,0,0,1-.45,1.6,2.86,2.86,0,0,1-1.27,1l1.87,2.68Zm-.48-6.4a2.07,2.07,0,0,0-1.33-.38H104.7v2.92h1.57a2,2,0,0,0,1.33-.39,1.51,1.51,0,0,0,0-2.15Z"/><path class="cls-2" d="M112.46,27.45a3.78,3.78,0,0,1-1-2.82V20h1.94v4.61c0,1.49.62,2.24,1.86,2.24a1.75,1.75,0,0,0,1.38-.54,2.54,2.54,0,0,0,.48-1.7V20H119v4.68a3.78,3.78,0,0,1-1,2.82,4.38,4.38,0,0,1-5.57,0Z"/><path class="cls-2" d="M128.6,20V28.3H127l-4.16-5.07V28.3h-1.91V20h1.6L126.69,25V20Z"/><path class="cls-2" d="M136.23,24H138v3.39a4.83,4.83,0,0,1-1.57.79,6.25,6.25,0,0,1-1.8.28,4.88,4.88,0,0,1-2.34-.56,4,4,0,0,1-1.63-1.54,4.49,4.49,0,0,1,0-4.45,4.06,4.06,0,0,1,1.64-1.54,5,5,0,0,1,2.36-.55,5.08,5.08,0,0,1,2,.37,3.89,3.89,0,0,1,1.51,1.07l-1.24,1.14a2.91,2.91,0,0,0-2.16-.94,2.84,2.84,0,0,0-1.42.34,2.31,2.31,0,0,0-1,.94,2.94,2.94,0,0,0,0,2.78,2.44,2.44,0,0,0,1,.95,2.82,2.82,0,0,0,1.4.34,3.15,3.15,0,0,0,1.51-.36Z"/><path class="cls-2" d="M144.89,21.52h-2.67V20h7.28v1.57h-2.68V28.3h-1.93Z"/><path class="cls-2" d="M155.62,26.51h-3.88L151,28.3h-2L152.74,20h1.91l3.74,8.35h-2Zm-.88-7.24-1-.91-1,.91H151.3l1.57-1.72h1.65l1.58,1.72ZM155,25l-1.32-3.19L152.36,25Z"/><path class="cls-2" d="M166.86,28.3v-5l-2.46,4.13h-.87l-2.45-4v4.9h-1.81V20h1.6L164,25.14,167.06,20h1.59l0,8.35Z"/><path class="cls-2" d="M178,25.34v3h-1.93v-3L172.88,20h2.05l2.23,3.71L179.39,20h1.9Z"/><path class="cls-2" d="M188.52,25l-1.12,1.17V28.3h-1.92V20h1.92v3.9l3.7-3.9h2.15l-3.46,3.72,3.66,4.63H191.2Z"/><path class="cls-2" d="M202,20V28.3H200V24.88h-3.8V28.3h-1.93V20h1.93v3.29H200V20Z"/><path class="cls-2" d="M205.65,27.88A4.1,4.1,0,0,1,204,26.34a4.45,4.45,0,0,1,0-4.43,4.17,4.17,0,0,1,1.63-1.54,4.83,4.83,0,0,1,2.35-.56,4.76,4.76,0,0,1,2.34.56,4.31,4.31,0,0,1,1.63,6,4.1,4.1,0,0,1-1.63,1.54,4.77,4.77,0,0,1-2.34.57A4.84,4.84,0,0,1,205.65,27.88Zm3.69-1.42a2.43,2.43,0,0,0,.93-.95,3,3,0,0,0,0-2.77,2.5,2.5,0,0,0-.93-.95,2.81,2.81,0,0,0-2.68,0,2.43,2.43,0,0,0-.93.95,3,3,0,0,0,0,2.77,2.36,2.36,0,0,0,.93.95,2.81,2.81,0,0,0,2.68,0Z"/><path class="cls-2" d="M219.42,26.51h-3.88l-.74,1.79h-2L216.54,20h1.91l3.74,8.35h-2ZM218.81,25l-1.32-3.19L216.16,25Z"/><path class="cls-2" d="M234.47,20l-3.62,8.35h-1.91L225.34,20h2.09l2.54,6,2.58-6Z"/><path class="cls-2" d="M240.4,26.51h-3.88l-.74,1.79h-2L237.52,20h1.91l3.74,8.35h-2ZM239.79,25l-1.32-3.19L237.14,25Zm-1.9,5.55a.75.75,0,0,1-.23-.58.81.81,0,0,1,.23-.6.78.78,0,0,1,.59-.24.78.78,0,0,1,.58.24.81.81,0,0,1,.24.6.75.75,0,0,1-.23.58.86.86,0,0,1-.59.22A.84.84,0,0,1,237.89,30.59Z"/><path class="cls-2" d="M251.7,20V28.3h-1.58L246,23.23V28.3H244V20h1.6L249.79,25V20Z"/><path class="cls-2" d="M264.72,20V28.3h-1.93V24.88H259V28.3h-1.93V20H259v3.29h3.8V20Z"/><path class="cls-2" d="M272.21,26.51h-3.88l-.74,1.79h-2L269.33,20h1.91L275,28.3h-2ZM271.6,25l-1.33-3.19L269,25Zm-1.91,5.55a.78.78,0,0,1-.23-.58.85.85,0,0,1,.23-.6.81.81,0,0,1,.59-.24.79.79,0,0,1,.59.24.81.81,0,0,1,.24.6.78.78,0,0,1-.23.58.91.91,0,0,1-1.19,0Z"/><path class="cls-2" d="M283.51,20V28.3h-1.59l-4.16-5.07V28.3h-1.91V20h1.6L281.6,25V20Z"/><path class="cls-2" d="M293.15,20V28.3h-1.93V24.88h-3.8V28.3h-1.93V20h1.93v3.29h3.8V20Z"/><path class="cls-3" d="M100.28,33.19,97.72,39h-.83l-2.56-5.83h.9L97.33,38l2.11-4.79Z"/><path class="cls-3" d="M108.15,37.56h-3.1L104.41,39h-.86l2.64-5.83H107L109.67,39h-.88Zm-.29-.67L106.6,34l-1.26,2.86Z"/><path class="cls-3" d="M118.84,33.19V39h-.68l-3.5-4.35V39h-.84V33.19h.69l3.5,4.34V33.19Z"/><path class="cls-3" d="M134.43,33.19V39h-.84v-2.6h-3.34V39h-.84V33.19h.84v2.5h3.34v-2.5Z"/><path class="cls-3" d="M143.18,37.56h-3.1L139.44,39h-.85l2.64-5.83h.82L144.7,39h-.87Zm-.29-.67L141.63,34l-1.25,2.86Z"/><path class="cls-3" d="M153.87,33.19V39h-.68l-3.5-4.35V39h-.83V33.19h.68l3.5,4.34V33.19Z"/><path class="cls-3" d="M163.93,33.19V39h-.83v-2.6h-3.35V39h-.84V33.19h.84v2.5h3.35v-2.5Z"/><path class="cls-3" d="M179.91,39V34.77l-2.11,3.54h-.38l-2.11-3.52V39h-.8V33.19h.69l2.43,4.09,2.4-4.09h.68V39Z"/><path class="cls-3" d="M190,38.29V39h-4.23V33.19h4.12v.72h-3.29V35.7h2.93v.71h-2.93v1.88Z"/><path class="cls-3" d="M194.62,33.19h2.46a3.6,3.6,0,0,1,1.64.36,2.79,2.79,0,0,1,1.12,1,3.16,3.16,0,0,1,0,3,2.72,2.72,0,0,1-1.12,1,3.48,3.48,0,0,1-1.64.37h-2.46Zm2.41,5.1a2.77,2.77,0,0,0,1.25-.27,2,2,0,0,0,.83-.77,2.41,2.41,0,0,0,0-2.29,2,2,0,0,0-.83-.77,2.65,2.65,0,0,0-1.25-.28h-1.57v4.38Z"/><path class="cls-3" d="M204.8,33.19h.83V39h-.83Z"/><path class="cls-3" d="M211.7,38.7a2.93,2.93,0,0,1-1.11-1.07,3,3,0,0,1-.4-1.53,3.06,3.06,0,0,1,.4-1.53,2.83,2.83,0,0,1,1.11-1.06,3.47,3.47,0,0,1,2.84-.16,2.52,2.52,0,0,1,1,.68l-.54.52a2.18,2.18,0,0,0-1.64-.69,2.45,2.45,0,0,0-1.18.29,2.13,2.13,0,0,0-.82.81A2.3,2.3,0,0,0,211,36.1a2.34,2.34,0,0,0,.29,1.15,2.1,2.1,0,0,0,.82.8,2.35,2.35,0,0,0,1.18.29,2.16,2.16,0,0,0,1.64-.7l.54.53a2.48,2.48,0,0,1-1,.68,3.49,3.49,0,0,1-2.83-.15Z"/><path class="cls-3" d="M223.7,37.56h-3.1L220,39h-.86l2.64-5.83h.83L225.22,39h-.88Zm-.29-.67L222.15,34l-1.26,2.86Z"/><path class="cls-3" d="M229.37,33.19h.84v5.1h3.15V39h-4Z"/><path class="cls-3" d="M244.18,38.7a2.89,2.89,0,0,1-1.51-2.6,3,3,0,0,1,.4-1.53,2.83,2.83,0,0,1,1.11-1.06,3.22,3.22,0,0,1,1.58-.39,3.16,3.16,0,0,1,1.25.23,2.55,2.55,0,0,1,1,.68l-.54.52a2.18,2.18,0,0,0-1.64-.69,2.43,2.43,0,0,0-1.18.29,2.13,2.13,0,0,0-.82.81,2.21,2.21,0,0,0-.3,1.14,2.24,2.24,0,0,0,.3,1.15,2.1,2.1,0,0,0,.82.8,2.32,2.32,0,0,0,1.18.29,2.17,2.17,0,0,0,1.64-.7l.54.53a2.55,2.55,0,0,1-1,.68,3.21,3.21,0,0,1-1.26.23A3.15,3.15,0,0,1,244.18,38.7Z"/><path class="cls-3" d="M256.69,38.29V39h-4.23V33.19h4.12v.72h-3.29V35.7h2.93v.71h-2.93v1.88Z"/><path class="cls-3" d="M266.35,33.19V39h-.68l-3.5-4.35V39h-.84V33.19H262l3.5,4.34V33.19Z"/><path class="cls-3" d="M272.55,33.91h-2v-.72h4.82v.72h-2V39h-.82Z"/><path class="cls-3" d="M283.8,38.29V39h-4.23V33.19h4.12v.72H280.4V35.7h2.93v.71H280.4v1.88Z"/><path class="cls-3" d="M292.34,39l-1.25-1.79h-1.81V39h-.83V33.19h2.27a2.68,2.68,0,0,1,1.78.54,1.82,1.82,0,0,1,.65,1.49,2,2,0,0,1-.33,1.15,2,2,0,0,1-.95.69l1.38,2Zm-.44-2.83a1.33,1.33,0,0,0,0-1.94,1.84,1.84,0,0,0-1.21-.34h-1.41v2.63h1.41A1.84,1.84,0,0,0,291.9,36.19Z"/><rect class="cls-4" x="94.38" y="44.21" width="198.82" height="0.88"/><path class="cls-2" d="M95.51,54.84a1.94,1.94,0,0,1-.81-.77A2.11,2.11,0,0,1,94.4,53a2.13,2.13,0,0,1,.3-1.12,2,2,0,0,1,.81-.77,2.38,2.38,0,0,1,1.17-.28,2.55,2.55,0,0,1,1,.19,2,2,0,0,1,.74.56l-.62.57a1.35,1.35,0,0,0-1.06-.49,1.41,1.41,0,0,0-.69.17,1.17,1.17,0,0,0-.48.48,1.41,1.41,0,0,0-.17.69,1.48,1.48,0,0,0,.17.7,1.21,1.21,0,0,0,.48.47,1.31,1.31,0,0,0,.69.17,1.35,1.35,0,0,0,1.06-.49l.62.57a1.94,1.94,0,0,1-.74.56,2.46,2.46,0,0,1-1,.19A2.37,2.37,0,0,1,95.51,54.84Z"/><path class="cls-2" d="M102.54,50.85v4.2h-1V53.33h-1.9v1.72h-1v-4.2h1v1.66h1.9V50.85Z"/><path class="cls-2" d="M103.64,54.62a1.92,1.92,0,0,1-.5-1.42V50.85h1v2.32c0,.75.31,1.12.94,1.12a.87.87,0,0,0,.69-.27,1.27,1.27,0,0,0,.24-.85V50.85h1V53.2a1.92,1.92,0,0,1-.5,1.42,2.21,2.21,0,0,1-2.8,0Z"/><path class="cls-2" d="M109.55,53.56v1.49h-1v-1.5L107,50.85h1l1.12,1.87,1.12-1.87h1Z"/><path class="cls-2" d="M114.48,54.27v.78h-3.25v-4.2h3.17v.78h-2.2v.91h1.94v.76H112.2v1Zm-1.14-3.76-.52-.45-.52.45h-.69l.8-.86h.82l.79.86Z"/><path class="cls-2" d="M118.74,50.85v4.2h-.8l-2.09-2.55v2.55h-1v-4.2h.81l2.08,2.55V50.85Z"/><path class="cls-2" d="M122.24,53.4l-.56.59v1.06h-1v-4.2h1v2l1.85-2h1.08l-1.74,1.87,1.84,2.33h-1.13Z"/><path class="cls-2" d="M128.63,50.85v4.2h-1V53.33h-1.9v1.72h-1v-4.2h1v1.66h1.9V50.85Z"/><path class="cls-2" d="M130.12,54.84a2.12,2.12,0,0,1-.82-.78,2.2,2.2,0,0,1,0-2.22,2.12,2.12,0,0,1,.82-.78,2.54,2.54,0,0,1,1.18-.28,2.5,2.5,0,0,1,1.17.28,2.12,2.12,0,0,1,.82.78,2.2,2.2,0,0,1,0,2.22,2.12,2.12,0,0,1-.82.78,2.38,2.38,0,0,1-1.17.28A2.42,2.42,0,0,1,130.12,54.84Zm1.85-.72a1.18,1.18,0,0,0,.47-.47,1.48,1.48,0,0,0,.17-.7,1.41,1.41,0,0,0-.17-.69,1.15,1.15,0,0,0-.47-.48,1.41,1.41,0,0,0-1.34,0,1.15,1.15,0,0,0-.47.48A1.31,1.31,0,0,0,130,53a1.37,1.37,0,0,0,.17.7,1.18,1.18,0,0,0,.47.47,1.41,1.41,0,0,0,1.34,0Z"/><path class="cls-2" d="M136.73,54.15h-1.95l-.37.9h-1l1.87-4.2h1l1.88,4.2h-1Zm-.31-.74-.66-1.6-.67,1.6Z"/><path class="cls-2" d="M139,52.59h2.59v.65H139Zm.57-1.74h1.91a2.59,2.59,0,0,1,1.2.27,1.94,1.94,0,0,1,.82.73,2.23,2.23,0,0,1,0,2.2,2,2,0,0,1-.82.74,2.71,2.71,0,0,1-1.2.26h-1.91Zm1.86,3.4a1.42,1.42,0,0,0,1-.35,1.23,1.23,0,0,0,.38-.95,1.25,1.25,0,0,0-.38-1,1.42,1.42,0,0,0-1-.35h-.89v2.6Z"/><path class="cls-2" d="M147,54.15H145l-.38.9h-1l1.87-4.2h1l1.87,4.2h-1Zm-.3-.74-.67-1.6-.66,1.6Z"/><path class="cls-2" d="M148.9,54.62a1.88,1.88,0,0,1-.51-1.42V50.85h1v2.32c0,.75.31,1.12.93,1.12A.9.9,0,0,0,151,54a1.27,1.27,0,0,0,.24-.85V50.85h.95V53.2a1.74,1.74,0,0,1-1.9,1.92A1.85,1.85,0,0,1,148.9,54.62Z"/><path class="cls-2" d="M153.94,53h1.7v.75h-1.7Z"/><path class="cls-2" d="M158.29,51.65H157v-.8h3.65v.8h-1.34v3.4h-1Z"/><path class="cls-2" d="M164.61,50.85v4.2h-1V53.33h-1.91v1.72h-1v-4.2h1v1.66h1.91V50.85Z"/><path class="cls-2" d="M168,54.15h-1.95l-.37.9h-1l1.87-4.2h1l1.88,4.2h-1Zm-.45-3.64-.52-.34-.51.34h-.69l.8-.68h.81l.8.68Zm.14,2.9-.66-1.6-.67,1.6Zm-.52-4.2h.95l.66.73h-.67Z"/><path class="cls-2" d="M173.32,50.85v4.2h-.79l-2.1-2.55v2.55h-1v-4.2h.8l2.08,2.55V50.85Z"/><path class="cls-2" d="M176.82,53.4l-.56.59v1.06h-1v-4.2h1v2l1.86-2h1.07l-1.73,1.87,1.84,2.33h-1.14Z"/><path class="cls-2" d="M179.37,50.85h1v4.2h-1Z"/><path class="cls-2" d="M184.82,50.85v4.2H184l-2.09-2.55v2.55h-1v-4.2h.81l2.08,2.55V50.85Z"/><path class="cls-2" d="M189.3,50.85v4.2h-1V53.33h-1.9v1.72h-1v-4.2h1v1.66h1.9V50.85Z"/><path class="cls-5" d="M195.39,51a1.4,1.4,0,0,1,.64.53,1.48,1.48,0,0,1,.22.81,1.52,1.52,0,0,1-.22.8,1.4,1.4,0,0,1-.64.53,2.35,2.35,0,0,1-1,.18h-.85v1.16h-1v-4.2h1.82A2.35,2.35,0,0,1,195.39,51ZM195,52.91a.65.65,0,0,0,.23-.53.69.69,0,0,0-.23-.55,1.07,1.07,0,0,0-.67-.18h-.79V53.1h.79A1,1,0,0,0,195,52.91Z"/><path class="cls-5" d="M199.4,54.15h-2l-.37.9h-1l1.87-4.2h.95l1.88,4.2h-1Zm-.31-.74-.66-1.6-.67,1.6Z"/><path class="cls-5" d="M200.87,50.85h1v4.2h-1Z"/><path class="cls-5" d="M206.32,50.85v4.2h-.8l-2.09-2.55v2.55h-1v-4.2h.81l2.08,2.55V50.85Z"/><path class="cls-5" d="M212.11,55.05V52.53l-1.23,2.08h-.44l-1.23-2v2.46h-.91v-4.2h.81l1.57,2.61,1.54-2.61h.8v4.2Z"/><path class="cls-5" d="M216.42,54.15h-1.95l-.37.9h-1l1.87-4.2h1l1.88,4.2h-1Zm-.31-.74-.66-1.6-.67,1.6Z"/><path class="cls-5" d="M221.73,50.85v4.2h-.79l-2.1-2.55v2.55h-1v-4.2h.8l2.08,2.55V50.85Z"/><path class="cls-5" d="M225.13,54.15h-1.95l-.37.9h-1l1.87-4.2h1l1.87,4.2h-1Zm-.3-.74-.67-1.6-.66,1.6Z"/><path class="cls-5" d="M229.43,52.89h.89v1.7a2.54,2.54,0,0,1-.79.39,2.83,2.83,0,0,1-.91.14,2.41,2.41,0,0,1-1.17-.28,2,2,0,0,1-.82-.77,2.1,2.1,0,0,1-.29-1.12,2.13,2.13,0,0,1,.29-1.12,2.06,2.06,0,0,1,.83-.77,2.42,2.42,0,0,1,1.18-.28,2.48,2.48,0,0,1,1,.19,2,2,0,0,1,.76.54l-.62.57a1.48,1.48,0,0,0-1.09-.47,1.38,1.38,0,0,0-.71.17,1.23,1.23,0,0,0-.49.47,1.45,1.45,0,0,0-.17.7,1.48,1.48,0,0,0,.17.7,1.27,1.27,0,0,0,.48.47,1.38,1.38,0,0,0,.71.17,1.54,1.54,0,0,0,.75-.18Z"/><path class="cls-5" d="M234.11,54.27v.78h-3.25v-4.2H234v.78h-2.21v.91h2v.76h-2v1Z"/><path class="cls-5" d="M238.34,55.05V52.53l-1.23,2.08h-.44l-1.23-2v2.46h-.91v-4.2h.8l1.57,2.61,1.55-2.61h.8v4.2Z"/><path class="cls-5" d="M243.13,54.27v.78h-3.25v-4.2h3.17v.78h-2.2v.91h2v.76h-2v1Z"/><path class="cls-5" d="M247.39,50.85v4.2h-.8L244.5,52.5v2.55h-.95v-4.2h.8l2.08,2.55V50.85Z"/><path class="cls-5" d="M248.9,51.65h-1.35v-.8h3.66v.8h-1.34v3.4h-1Z"/><path class="cls-5" d="M252.52,53h1.7v.75h-1.7Z"/><path class="cls-5" d="M259.84,50.85v4.2h-.79L257,52.5v2.55h-1v-4.2h.8l2.09,2.55V50.85Z"/><path class="cls-5" d="M263.73,54.27v.78h-3.25v-4.2h3.17v.78h-2.21v.91h1.95v.76h-1.95v1Z"/><path class="cls-5" d="M264.6,54.62a1.92,1.92,0,0,1-.5-1.42V50.85h1v2.32c0,.75.32,1.12.94,1.12a.86.86,0,0,0,.69-.27,1.27,1.27,0,0,0,.24-.85V50.85h1V53.2a2,2,0,0,1-3.3,1.42Z"/><path class="cls-5" d="M271.18,55.05l-.81-1.17h-.9v1.17h-1v-4.2h1.82a2.43,2.43,0,0,1,1,.19,1.43,1.43,0,0,1,.63.53,1.58,1.58,0,0,1,0,1.61,1.44,1.44,0,0,1-.64.52l.94,1.35Zm-.25-3.22a1.05,1.05,0,0,0-.67-.18h-.79v1.46h.79a1,1,0,0,0,.67-.19.68.68,0,0,0,.23-.54A.69.69,0,0,0,270.93,51.83Z"/><path class="cls-5" d="M273.4,54.84a2.12,2.12,0,0,1-.82-.78,2.2,2.2,0,0,1,0-2.22,2.12,2.12,0,0,1,.82-.78,2.54,2.54,0,0,1,1.18-.28,2.5,2.5,0,0,1,1.17.28,2.12,2.12,0,0,1,.82.78,2.2,2.2,0,0,1,0,2.22,2.12,2.12,0,0,1-.82.78,2.38,2.38,0,0,1-1.17.28A2.42,2.42,0,0,1,273.4,54.84Zm1.85-.72a1.18,1.18,0,0,0,.47-.47,1.48,1.48,0,0,0,.17-.7,1.41,1.41,0,0,0-.17-.69,1.15,1.15,0,0,0-.47-.48,1.41,1.41,0,0,0-1.34,0,1.15,1.15,0,0,0-.47.48,1.31,1.31,0,0,0-.17.69,1.37,1.37,0,0,0,.17.7,1.18,1.18,0,0,0,.47.47,1.41,1.41,0,0,0,1.34,0Z"/><path class="cls-5" d="M277.25,50.85h1v3.41h2.1v.79h-3.07Z"/><path class="cls-5" d="M281.36,54.84a2.12,2.12,0,0,1-.82-.78,2.2,2.2,0,0,1,0-2.22,2.12,2.12,0,0,1,.82-.78,2.61,2.61,0,0,1,2.35,0,2.12,2.12,0,0,1,.82.78,2.2,2.2,0,0,1,0,2.22,2.12,2.12,0,0,1-.82.78,2.61,2.61,0,0,1-2.35,0Zm1.85-.72a1.25,1.25,0,0,0,.47-.47,1.48,1.48,0,0,0,.17-.7,1.41,1.41,0,0,0-.17-.69,1.21,1.21,0,0,0-.47-.48,1.43,1.43,0,0,0-1.35,0,1.28,1.28,0,0,0-.47.48,1.41,1.41,0,0,0-.17.69,1.48,1.48,0,0,0,.17.7,1.32,1.32,0,0,0,.47.47,1.43,1.43,0,0,0,1.35,0Z"/><path class="cls-5" d="M288,52.89h.88v1.7a2.43,2.43,0,0,1-.79.39,2.82,2.82,0,0,1-.9.14,2.42,2.42,0,0,1-1.18-.28,2,2,0,0,1-.81-.77,2.11,2.11,0,0,1-.3-1.12,2.13,2.13,0,0,1,.3-1.12,2,2,0,0,1,.82-.77,2.46,2.46,0,0,1,1.19-.28,2.51,2.51,0,0,1,1,.19,1.86,1.86,0,0,1,.75.54l-.62.57a1.46,1.46,0,0,0-1.09-.47,1.41,1.41,0,0,0-.71.17,1.15,1.15,0,0,0-.48.47,1.35,1.35,0,0,0-.18.7,1.38,1.38,0,0,0,.18.7,1.15,1.15,0,0,0,.48.47,1.35,1.35,0,0,0,.7.17,1.61,1.61,0,0,0,.76-.18Z"/><path class="cls-5" d="M291.48,53.56v1.49h-1v-1.5l-1.63-2.7h1L291,52.72l1.12-1.87h1Z"/><path class="cls-3" d="M1.78,20h9.85a1.76,1.76,0,0,1,1.34.62L28.51,38.71v-17A1.78,1.78,0,0,1,30.29,20h7.17a1.78,1.78,0,0,1,1.77,1.78V53.46a1.77,1.77,0,0,1-1.77,1.77H29.32A1.78,1.78,0,0,1,28,54.62L.44,22.89A1.78,1.78,0,0,1,1.78,20"/><g class="cls-6"><rect class="cls-1" x="40.75" y="19.95" width="23.44" height="35.28"/><rect class="cls-7" x="40.75" y="18.62" width="23.44" height="44.79"/></g><path class="cls-8" d="M78.34,1.56V7.13H73.76A3.8,3.8,0,0,0,70,10.94v4.39H64.24a1.58,1.58,0,0,1-1.59-1.56V9.4a1.59,1.59,0,0,1,1.59-1.57h6.43V1.56A1.57,1.57,0,0,1,71.14.45,1.65,1.65,0,0,1,72.27,0h4.47a1.67,1.67,0,0,1,1.13.45,1.57,1.57,0,0,1,.47,1.11"/><path class="cls-8" d="M86.36,9.4v4.37a1.58,1.58,0,0,1-1.6,1.56H78.34c0-5,2.92-6.78,6.52-7.49a1.58,1.58,0,0,1,1.5,1.49V9.4"/><g class="cls-9"><rect class="cls-10" x="69.89" y="6.51" width="16.47" height="20.69"/></g></g></g></svg>