<svg xmlns="http://www.w3.org/2000/svg" xmlns:xlink="http://www.w3.org/1999/xlink" viewBox="0 0 1241.41 268.26"><defs><style>.cls-1,.cls-3{fill:#fff;}.cls-2{clip-path:url(#clip-path);}.cls-3{fill-rule:evenodd;}.cls-4{clip-path:url(#clip-path-3);}</style><clipPath id="clip-path"><path class="cls-1" d="M235.07,84.42a7.5,7.5,0,0,0-7.5,7.5v45.29H172.41v36a7.5,7.5,0,0,0,7.65,7.5l46.75-.94,1,46.54a7.5,7.5,0,0,0,7.5,7.34h29a7.5,7.5,0,0,0,7.5-7.5V91.92a7.5,7.5,0,0,0-7.5-7.5Z"/></clipPath><clipPath id="clip-path-3"><path class="cls-1" d="M313.75,33.15c-10.36,0-14.76,6.39-14.76,16.22V91.43A6.7,6.7,0,0,0,305.75,98h18.94a6.7,6.7,0,0,0,6.76-6.61V64.88c0-21.18,12.35-28.68,27.59-31.72H313.75Z"/></clipPath></defs><g id="Layer_2" data-name="Layer 2"><g id="Layer_1-2" data-name="Layer 1"><path class="cls-1" d="M410.76,91.44H399.43V84.77h30.84v6.67H418.94v28.72h-8.19V91.44Z"/><path class="cls-1" d="M457.23,120.16l-6.83-9.86h-7.53v9.86h-8.19V84.77H450a19.62,19.62,0,0,1,8.17,1.57,12.05,12.05,0,0,1,5.33,4.45,12.24,12.24,0,0,1,1.87,6.83,11.54,11.54,0,0,1-7.28,11.17L466,120.17h-8.8ZM455.16,93a8.61,8.61,0,0,0-5.61-1.59h-6.67v12.34h6.67a8.49,8.49,0,0,0,5.61-1.62,6.39,6.39,0,0,0,0-9.13Z"/><path class="cls-1" d="M475.76,116.57q-4.22-4.2-4.22-12V84.77h8.19v19.52q0,9.51,7.89,9.51a7.42,7.42,0,0,0,5.87-2.3c1.35-1.53,2-3.94,2-7.21V84.77h8.09v19.82q0,7.78-4.22,12t-11.81,4.2Q480,120.77,475.76,116.57Z"/><path class="cls-1" d="M544.14,84.77v35.39h-6.72L519.77,98.67v21.49h-8.09V84.77h6.78l17.59,21.49V84.77Z"/><path class="cls-1" d="M576.45,101.91h7.48v14.36a21.53,21.53,0,0,1-6.67,3.34,25.69,25.69,0,0,1-7.63,1.16,20.66,20.66,0,0,1-9.91-2.35,17.54,17.54,0,0,1-6.9-6.52,19,19,0,0,1,0-18.86,17.41,17.41,0,0,1,6.95-6.52,21.06,21.06,0,0,1,10-2.35,21.77,21.77,0,0,1,8.44,1.57,16.76,16.76,0,0,1,6.37,4.55l-5.26,4.85a12.17,12.17,0,0,0-9.15-4,12.45,12.45,0,0,0-6,1.42,10.22,10.22,0,0,0-4.1,4,12.55,12.55,0,0,0,0,11.79,10.35,10.35,0,0,0,4.07,4,12.09,12.09,0,0,0,5.94,1.44,13.29,13.29,0,0,0,6.37-1.52V101.91Z"/><path class="cls-1" d="M613.15,91.44H601.83V84.77h30.84v6.67H621.34v28.72h-8.19Z"/><path class="cls-1" d="M658.61,112.57H642.18l-3.13,7.58h-8.39l15.77-35.39h8.09l15.83,35.39h-8.6Zm-3.74-30.69L650.47,78l-4.4,3.84h-5.76L647,74.6h7l6.67,7.28ZM656,106.36l-5.61-13.55-5.61,13.55Z"/><path class="cls-1" d="M706.24,120.16l0-21.24-10.42,17.49h-3.69l-10.37-17v20.78H674V84.77h6.78l13.25,22,13-22h6.72l.1,35.39Z"/><path class="cls-1" d="M753.61,107.62v12.54h-8.19V107.52l-13.7-22.75h8.7l9.46,15.72,9.46-15.72h8Z"/><path class="cls-1" d="M798,106.25l-4.75,5v9h-8.14V84.77h8.14V101.3l15.67-16.53H818l-14.66,15.77,15.52,19.62h-9.55Z"/><path class="cls-1" d="M855,84.77v35.39h-8.19V105.65H830.71v14.51h-8.19V84.77h8.19v14h16.08v-14Z"/><path class="cls-1" d="M870.58,118.39a17.63,17.63,0,0,1-6.93-6.55,18.05,18.05,0,0,1,6.93-25.31,20.7,20.7,0,0,1,9.93-2.38,20.45,20.45,0,0,1,9.91,2.38,17.9,17.9,0,0,1,6.93,6.55,18.65,18.65,0,0,1,0,18.76,17.91,17.91,0,0,1-6.93,6.55,21.86,21.86,0,0,1-19.84,0Zm15.6-6a10.3,10.3,0,0,0,4-4,12.66,12.66,0,0,0,0-11.73,10.3,10.3,0,0,0-4-4,11.84,11.84,0,0,0-11.32,0,10.3,10.3,0,0,0-4,4,12.66,12.66,0,0,0,0,11.73,10.3,10.3,0,0,0,4,4,11.84,11.84,0,0,0,11.32,0Z"/><path class="cls-1" d="M928.9,112.57H912.47l-3.13,7.58H901l15.77-35.39h8.09l15.83,35.39h-8.59Zm-2.58-6.21-5.61-13.55-5.61,13.55Z"/><path class="cls-1" d="M992.66,84.77l-15.33,35.39h-8.09L954,84.77h8.85l10.77,25.28,10.92-25.28Z"/><path class="cls-1" d="M1017.78,112.57h-16.43l-3.13,7.58h-8.39l15.77-35.39h8.09l15.83,35.39h-8.59Zm-2.58-6.21-5.61-13.55L1004,106.36Zm-8.06,23.48a3.21,3.21,0,0,1-1-2.45,3.48,3.48,0,0,1,1-2.53,3.36,3.36,0,0,1,2.5-1,3.4,3.4,0,0,1,2.48,1,3.44,3.44,0,0,1,1,2.53,3.21,3.21,0,0,1-1,2.45,3.5,3.5,0,0,1-2.5.93A3.46,3.46,0,0,1,1007.14,129.84Z"/><path class="cls-1" d="M1065.66,84.77v35.39h-6.72l-17.65-21.49v21.49h-8.09V84.77H1040l17.59,21.49V84.77Z"/><path class="cls-1" d="M1120.82,84.77v35.39h-8.19V105.65h-16.08v14.51h-8.19V84.77h8.19v14h16.08v-14Z"/><path class="cls-1" d="M1152.52,112.57h-16.43l-3.13,7.58h-8.39l15.77-35.39h8.09l15.83,35.39h-8.59Zm-2.57-6.21-5.61-13.55-5.61,13.55Zm-8.07,23.48a3.21,3.21,0,0,1-1-2.45,3.48,3.48,0,0,1,1-2.53,3.36,3.36,0,0,1,2.5-1,3.4,3.4,0,0,1,2.48,1,3.44,3.44,0,0,1,1,2.53,3.21,3.21,0,0,1-1,2.45,3.5,3.5,0,0,1-2.5.93A3.46,3.46,0,0,1,1141.88,129.84Z"/><path class="cls-1" d="M1200.4,84.77v35.39h-6.72L1176,98.67v21.49h-8.09V84.77h6.78l17.59,21.49V84.77Z"/><path class="cls-1" d="M1241.26,84.77v35.39h-8.19V105.65H1217v14.51h-8.19V84.77H1217v14h16.08v-14Z"/><path class="cls-1" d="M424.42,140.85l-10.83,24.69H410.1l-10.86-24.69h3.81l8.89,20.28,9-20.28Z"/><path class="cls-1" d="M457.75,159.37H444.63l-2.72,6.17h-3.63l11.18-24.69H453l11.22,24.69h-3.7Zm-1.23-2.82-5.33-12.1-5.33,12.1Z"/><path class="cls-1" d="M503,140.85v24.69h-2.89l-14.81-18.41v18.41h-3.53V140.85h2.89l14.81,18.41V140.85Z"/><path class="cls-1" d="M569,140.85v24.69h-3.53v-11H551.29v11h-3.53V140.85h3.53v10.62h14.18V140.85Z"/><path class="cls-1" d="M606.07,159.37H593l-2.72,6.17H586.6l11.18-24.69h3.49l11.22,24.69h-3.7Zm-1.23-2.82-5.33-12.1-5.33,12.1Z"/><path class="cls-1" d="M651.33,140.85v24.69h-2.89l-14.81-18.41v18.41H630.1V140.85H633l14.81,18.41V140.85Z"/><path class="cls-1" d="M693.9,140.85v24.69h-3.53v-11H676.19v11h-3.53V140.85h3.53v10.62h14.18V140.85Z"/><path class="cls-1" d="M761.56,165.55l0-18-8.92,15H751l-8.92-14.88v17.88h-3.39V140.86h2.89l10.3,17.35L762,140.86h2.89l0,24.69Z"/><path class="cls-1" d="M804.2,162.48v3.07H786.28V140.86H803.7v3.07H789.8v7.58h12.38v3H789.8v8Z"/><path class="cls-1" d="M823.85,140.85h10.41a15.1,15.1,0,0,1,7,1.55,11.48,11.48,0,0,1,4.71,4.36,13.18,13.18,0,0,1,0,12.88,11.48,11.48,0,0,1-4.71,4.36,15,15,0,0,1-7,1.55H823.85ZM834,162.48a11.46,11.46,0,0,0,5.27-1.16,8.39,8.39,0,0,0,3.51-3.26,10.18,10.18,0,0,0,0-9.7,8.33,8.33,0,0,0-3.51-3.26,11.52,11.52,0,0,0-5.27-1.16h-6.67v18.55H834Z"/><path class="cls-1" d="M866.91,140.85h3.53v24.69h-3.53Z"/><path class="cls-1" d="M896.14,164.19a12.06,12.06,0,0,1-4.67-4.51,13.23,13.23,0,0,1,0-12.94,12,12,0,0,1,4.69-4.51,13.76,13.76,0,0,1,6.7-1.64,13.92,13.92,0,0,1,5.29,1,10.76,10.76,0,0,1,4.09,2.88L910,146.66a9.21,9.21,0,0,0-7-2.93,10.09,10.09,0,0,0-5,1.23,8.93,8.93,0,0,0-3.47,3.4,10,10,0,0,0,0,9.7,8.86,8.86,0,0,0,3.47,3.4,10.09,10.09,0,0,0,5,1.23,9.24,9.24,0,0,0,7-3l2.29,2.22a11,11,0,0,1-4.11,2.89,13.87,13.87,0,0,1-5.31,1A13.63,13.63,0,0,1,896.14,164.19Z"/><path class="cls-1" d="M947,159.37H933.83l-2.72,6.17h-3.63l11.18-24.69h3.49l11.22,24.69h-3.7Zm-1.24-2.82-5.33-12.1-5.33,12.1Z"/><path class="cls-1" d="M971,140.85h3.53v21.62h13.37v3.07H971Z"/><path class="cls-1" d="M1033.63,164.19a12.06,12.06,0,0,1-4.67-4.51,13.23,13.23,0,0,1,0-12.94,12,12,0,0,1,4.69-4.51,13.76,13.76,0,0,1,6.7-1.64,13.92,13.92,0,0,1,5.29,1,10.76,10.76,0,0,1,4.09,2.88l-2.29,2.22a9.21,9.21,0,0,0-7-2.93,10.09,10.09,0,0,0-5,1.23,8.93,8.93,0,0,0-3.47,3.4,10,10,0,0,0,0,9.7,8.86,8.86,0,0,0,3.47,3.4,10.09,10.09,0,0,0,5,1.23,9.24,9.24,0,0,0,7-3l2.29,2.22a11,11,0,0,1-4.11,2.89,13.87,13.87,0,0,1-5.31,1A13.66,13.66,0,0,1,1033.63,164.19Z"/><path class="cls-1" d="M1086.63,162.48v3.07h-17.92V140.86h17.42v3.07h-13.9v7.58h12.38v3h-12.38v8Z"/><path class="cls-1" d="M1127.51,140.85v24.69h-2.89l-14.81-18.41v18.41h-3.53V140.85h2.89L1124,159.26V140.85Z"/><path class="cls-1" d="M1153.75,143.92h-8.47v-3.07h20.42v3.07h-8.46v21.62h-3.49V143.92Z"/><path class="cls-1" d="M1201.4,162.48v3.07h-17.92V140.86h17.42v3.07H1187v7.58h12.38v3H1187v8Z"/><path class="cls-1" d="M1237.56,165.55l-5.33-7.58c-.66.05-1.18.07-1.55.07h-6.1v7.51h-3.53V140.86h9.63a11.44,11.44,0,0,1,7.55,2.29,7.78,7.78,0,0,1,2.75,6.31,8.28,8.28,0,0,1-1.41,4.87,8,8,0,0,1-4,2.93l5.86,8.29Zm-1.87-12a5.7,5.7,0,0,0,0-8.24,8,8,0,0,0-5.11-1.43h-6V155h6A7.92,7.92,0,0,0,1235.69,153.59Z"/><rect class="cls-1" x="399.23" y="187.55" width="842.17" height="3.73"/><path class="cls-1" d="M7.52,84.42H49.2A7.49,7.49,0,0,1,54.89,87l65.75,76.74V91.92a7.5,7.5,0,0,1,7.5-7.5h30.33a7.5,7.5,0,0,1,7.5,7.5V226.18a7.5,7.5,0,0,1-7.5,7.5H124.06a7.49,7.49,0,0,1-5.66-2.58L1.85,96.84A7.51,7.51,0,0,1,7.52,84.42"/><path class="cls-1" d="M235.07,84.42a7.5,7.5,0,0,0-7.5,7.5v45.29H172.41v36a7.5,7.5,0,0,0,7.65,7.5l46.75-.94,1,46.54a7.5,7.5,0,0,0,7.5,7.34h29a7.5,7.5,0,0,0,7.5-7.5V91.92a7.5,7.5,0,0,0-7.5-7.5Z"/><g class="cls-2"><rect class="cls-1" x="172.41" y="84.42" width="99.16" height="149.26"/></g><path class="cls-1" d="M235.07,84.42a7.5,7.5,0,0,0-7.5,7.5v45.29H172.41v36a7.5,7.5,0,0,0,7.65,7.5l46.75-.94,1,46.54a7.5,7.5,0,0,0,7.5,7.34h29a7.5,7.5,0,0,0,7.5-7.5V91.92a7.5,7.5,0,0,0-7.5-7.5Z"/><g class="cls-2"><rect class="cls-1" x="172.41" y="78.76" width="99.16" height="189.5"/></g><path class="cls-3" d="M331.47,6.6V30.18H312.1A16.08,16.08,0,0,0,296,46.26v18.6H271.81a6.7,6.7,0,0,1-6.75-6.61V39.75a6.73,6.73,0,0,1,6.75-6.61H299V6.6a6.64,6.64,0,0,1,2-4.68A6.82,6.82,0,0,1,305.75,0h18.93a7,7,0,0,1,4.8,1.92,6.62,6.62,0,0,1,2,4.68"/><path class="cls-3" d="M365.39,39.75V58.26a6.7,6.7,0,0,1-6.76,6.61H331.46c0-21.18,12.35-28.68,27.58-31.72a6.71,6.71,0,0,1,6.35,6.31v.29"/><path class="cls-1" d="M313.75,33.15c-10.36,0-14.76,6.39-14.76,16.22V91.43A6.7,6.7,0,0,0,305.75,98h18.94a6.7,6.7,0,0,0,6.76-6.61V64.88c0-21.18,12.35-28.68,27.59-31.72H313.75Z"/><g class="cls-4"><rect class="cls-1" x="295.69" y="27.53" width="69.7" height="87.53"/></g><path class="cls-1" d="M404.67,232.72a7.55,7.55,0,0,1-3-2.81,8.15,8.15,0,0,1,0-8.11,7.55,7.55,0,0,1,3-2.81,9.43,9.43,0,0,1,7.81-.31,7.14,7.14,0,0,1,2.69,2l-2.26,2.09a4.87,4.87,0,0,0-3.83-1.78,5.11,5.11,0,0,0-2.52.62,4.36,4.36,0,0,0-1.73,1.73,5.43,5.43,0,0,0,0,5,4.36,4.36,0,0,0,1.73,1.73,5.11,5.11,0,0,0,2.52.62,4.85,4.85,0,0,0,3.83-1.8l2.26,2.09a7,7,0,0,1-2.7,2,9.05,9.05,0,0,1-3.59.7A8.91,8.91,0,0,1,404.67,232.72Z"/><path class="cls-1" d="M432.1,218.25v15.22h-3.52v-6.24h-6.92v6.24h-3.52V218.25h3.52v6h6.92v-6Z"/><path class="cls-1" d="M438,231.92a6.94,6.94,0,0,1-1.82-5.15v-8.52h3.52v8.39q0,4.1,3.39,4.09a3.18,3.18,0,0,0,2.52-1,4.61,4.61,0,0,0,.87-3.1v-8.39H450v8.52a6.3,6.3,0,0,1-6.9,6.95A6.81,6.81,0,0,1,438,231.92Z"/><path class="cls-1" d="M461.37,228.07v5.39h-3.52V228L452,218.23h3.74l4.07,6.76,4.07-6.76h3.46Z"/><path class="cls-1" d="M481.16,230.64v2.83H469.37V218.25h11.5v2.83h-8v3.3h7.07v2.74h-7.07v3.52ZM477,217l-1.89-1.65L473.25,217h-2.48l2.87-3.13h3l2.87,3.13Z"/><path class="cls-1" d="M498.53,218.25v15.22h-2.89l-7.59-9.24v9.24h-3.48V218.25h2.91l7.57,9.24v-9.24Z"/><path class="cls-1" d="M515.06,227.49l-2,2.13v3.85h-3.5V218.25H513v7.11l6.74-7.11h3.91L517.36,225l6.68,8.44h-4.11Z"/><path class="cls-1" d="M540.17,218.25v15.22h-3.52v-6.24h-6.92v6.24h-3.52V218.25h3.52v6h6.92v-6Z"/><path class="cls-1" d="M547.49,232.71a7.57,7.57,0,0,1-3-2.82,7.77,7.77,0,0,1,3-10.88,9.43,9.43,0,0,1,8.53,0,7.64,7.64,0,0,1,4.07,6.85,7.56,7.56,0,0,1-1.09,4,7.77,7.77,0,0,1-3,2.82,8.71,8.71,0,0,1-4.26,1A8.89,8.89,0,0,1,547.49,232.71Zm6.71-2.6a4.51,4.51,0,0,0,1.71-1.73,5.43,5.43,0,0,0,0-5,4.38,4.38,0,0,0-1.71-1.73,5.11,5.11,0,0,0-4.88,0,4.44,4.44,0,0,0-1.71,1.73,5.43,5.43,0,0,0,0,5,4.38,4.38,0,0,0,1.71,1.73,5.11,5.11,0,0,0,4.88,0Z"/><path class="cls-1" d="M573.38,230.21h-7.07L565,233.47h-3.61l6.78-15.22h3.48l6.81,15.22h-3.7Zm-1.11-2.68-2.41-5.83-2.41,5.83Z"/><path class="cls-1" d="M585.6,224.55H595v2.35H585.6Zm2.06-6.3h6.92a9.73,9.73,0,0,1,4.38.95,7.14,7.14,0,0,1,3,2.66,8.14,8.14,0,0,1,0,8,7.08,7.08,0,0,1-3,2.66,9.73,9.73,0,0,1-4.38.95h-6.92Zm6.74,12.32A5.09,5.09,0,0,0,598,229.3a5.06,5.06,0,0,0,0-6.9,5.11,5.11,0,0,0-3.64-1.27h-3.22v9.44Z"/><path class="cls-1" d="M616.26,230.21h-7.07l-1.35,3.26h-3.61L611,218.25h3.48l6.81,15.22h-3.7Zm-1.11-2.68-2.41-5.83-2.41,5.83Z"/><path class="cls-1" d="M625.18,231.92a6.94,6.94,0,0,1-1.82-5.15v-8.52h3.52v8.39q0,4.1,3.39,4.09a3.18,3.18,0,0,0,2.52-1,4.61,4.61,0,0,0,.87-3.1v-8.39h3.48v8.52a6.3,6.3,0,0,1-6.9,6.95A6.81,6.81,0,0,1,625.18,231.92Z"/><path class="cls-1" d="M647.33,226h6.15v2.72h-6.15Z"/><path class="cls-1" d="M666.92,221.12h-4.87v-2.87h13.26v2.87h-4.87v12.35h-3.52Z"/><path class="cls-1" d="M691.78,218.25v15.22h-3.52v-6.24h-6.92v6.24h-3.52V218.25h3.52v6h6.92v-6Z"/><path class="cls-1" d="M706,230.21H699l-1.35,3.26H694l6.78-15.22h3.48l6.81,15.22h-3.7ZM704.39,217l-1.87-1.24L700.65,217h-2.5l2.89-2.48h3l2.89,2.48Zm.52,10.52-2.41-5.83-2.41,5.83ZM703,212.29h3.46l2.39,2.63h-2.44Z"/><path class="cls-1" d="M727.22,218.25v15.22h-2.89l-7.59-9.24v9.24h-3.48V218.25h2.91l7.57,9.24v-9.24Z"/><path class="cls-1" d="M743.75,227.49l-2,2.13v3.85h-3.5V218.25h3.5v7.11l6.74-7.11h3.91L746.05,225l6.68,8.44h-4.11Z"/><path class="cls-1" d="M754.9,218.25h3.52v15.22H754.9Z"/><path class="cls-1" d="M776.61,218.25v15.22h-2.89l-7.59-9.24v9.24h-3.48V218.25h2.91l7.57,9.24v-9.24Z"/><path class="cls-1" d="M794.78,218.25v15.22h-3.52v-6.24h-6.92v6.24h-3.52V218.25h3.52v6h6.92v-6Z"/><path class="cls-1" d="M836.15,218.92a5.23,5.23,0,0,1,2.29,1.91,5.77,5.77,0,0,1,0,5.86,5.1,5.1,0,0,1-2.29,1.91,8.59,8.59,0,0,1-3.51.66h-3.07v4.2h-3.52V218.24h6.59A8.58,8.58,0,0,1,836.15,218.92Zm-1.29,6.8a2.73,2.73,0,0,0,0-3.92,3.68,3.68,0,0,0-2.41-.69h-2.87v5.28h2.87A3.68,3.68,0,0,0,834.86,225.72Z"/><path class="cls-1" d="M852.6,230.21h-7.07l-1.35,3.26h-3.61l6.78-15.22h3.48l6.81,15.22h-3.7Zm-1.11-2.68-2.41-5.83-2.41,5.83Z"/><path class="cls-1" d="M859.84,218.25h3.52v15.22h-3.52Z"/><path class="cls-1" d="M881.55,218.25v15.22h-2.89l-7.59-9.24v9.24h-3.48V218.25h2.91l7.57,9.24v-9.24Z"/><path class="cls-1" d="M906.38,233.47l0-9.13-4.48,7.52h-1.59l-4.46-7.33v8.94h-3.31V218.25h2.91l5.7,9.46,5.61-9.46h2.89l0,15.22Z"/><path class="cls-1" d="M923.93,230.21h-7.07l-1.35,3.26H911.9l6.78-15.22h3.48L929,233.47h-3.7Zm-1.11-2.68-2.41-5.83L918,227.53Z"/><path class="cls-1" d="M945.13,218.25v15.22h-2.89l-7.59-9.24v9.24h-3.48V218.25h2.91l7.57,9.24v-9.24Z"/><path class="cls-1" d="M959.37,230.21H952.3L951,233.47h-3.61l6.78-15.22h3.48l6.81,15.22h-3.7Zm-1.11-2.68-2.41-5.83-2.41,5.83Z"/><path class="cls-1" d="M976.9,225.62h3.22v6.17a9.43,9.43,0,0,1-2.87,1.44,11.26,11.26,0,0,1-3.28.5,8.93,8.93,0,0,1-4.26-1,7.51,7.51,0,0,1-3-2.81,8.15,8.15,0,0,1,0-8.11,7.5,7.5,0,0,1,3-2.81,9.14,9.14,0,0,1,4.31-1,9.43,9.43,0,0,1,3.63.67,7.14,7.14,0,0,1,2.74,2l-2.26,2.09a5.22,5.22,0,0,0-3.94-1.72,5.36,5.36,0,0,0-2.59.61,4.41,4.41,0,0,0-1.76,1.72,5.4,5.4,0,0,0,0,5.06,4.41,4.41,0,0,0,1.75,1.73,5.24,5.24,0,0,0,2.56.62,5.77,5.77,0,0,0,2.74-.65v-4.45Z"/><path class="cls-1" d="M995.77,230.64v2.83H984V218.25h11.5v2.83h-8v3.3h7.07v2.74h-7.07v3.52Z"/><path class="cls-1" d="M1013,233.47l0-9.13-4.48,7.52H1007l-4.46-7.33v8.94h-3.31V218.25h2.91l5.7,9.46,5.61-9.46h2.89l0,15.22Z"/><path class="cls-1" d="M1032.35,230.64v2.83h-11.79V218.25h11.5v2.83h-8v3.3h7.07v2.74h-7.07v3.52Z"/><path class="cls-1" d="M1049.72,218.25v15.22h-2.89l-7.59-9.24v9.24h-3.48V218.25h2.91l7.57,9.24v-9.24Z"/><path class="cls-1" d="M1057.09,221.12h-4.87v-2.87h13.26v2.87h-4.87v12.35h-3.52Z"/><path class="cls-1" d="M1074.07,226h6.15v2.72h-6.15Z"/><path class="cls-1" d="M1104.47,218.25v15.22h-2.89l-7.59-9.24v9.24h-3.48V218.25h2.91l7.57,9.24v-9.24Z"/><path class="cls-1" d="M1120.48,230.64v2.83h-11.79V218.25h11.5v2.83h-8v3.3h7.07v2.74h-7.07v3.52Z"/><path class="cls-1" d="M1125.58,231.92a6.94,6.94,0,0,1-1.82-5.15v-8.52h3.52v8.39q0,4.1,3.39,4.09a3.18,3.18,0,0,0,2.52-1,4.61,4.61,0,0,0,.87-3.1v-8.39h3.48v8.52a6.3,6.3,0,0,1-6.9,6.95A6.8,6.8,0,0,1,1125.58,231.92Z"/><path class="cls-1" d="M1151.33,233.47l-2.94-4.24h-3.24v4.24h-3.52V218.25h6.59a8.42,8.42,0,0,1,3.51.67,5.23,5.23,0,0,1,2.29,1.91,5.3,5.3,0,0,1,.8,2.94,5.06,5.06,0,0,1-.82,2.92,5.12,5.12,0,0,1-2.32,1.88l3.41,4.89h-3.76Zm-.89-11.67a3.68,3.68,0,0,0-2.41-.69h-2.87v5.31H1148a3.61,3.61,0,0,0,2.41-.7,2.44,2.44,0,0,0,.83-2A2.41,2.41,0,0,0,1150.44,221.8Z"/><path class="cls-1" d="M1161.33,232.71a7.57,7.57,0,0,1-3-2.82,7.77,7.77,0,0,1,3-10.88,9.43,9.43,0,0,1,8.53,0,7.64,7.64,0,0,1,4.07,6.85,7.56,7.56,0,0,1-1.09,4,7.77,7.77,0,0,1-3,2.82,9.43,9.43,0,0,1-8.53,0Zm6.7-2.6a4.51,4.51,0,0,0,1.71-1.73,5.43,5.43,0,0,0,0-5,4.38,4.38,0,0,0-1.71-1.73,5.11,5.11,0,0,0-4.88,0,4.44,4.44,0,0,0-1.71,1.73,5.43,5.43,0,0,0,0,5,4.38,4.38,0,0,0,1.71,1.73,5.11,5.11,0,0,0,4.88,0Z"/><path class="cls-1" d="M1177.19,218.25h3.52V230.6h7.63v2.87h-11.16V218.25Z"/><path class="cls-1" d="M1194,232.71a7.57,7.57,0,0,1-3-2.82,7.77,7.77,0,0,1,3-10.88,9.43,9.43,0,0,1,8.53,0,7.64,7.64,0,0,1,4.07,6.85,7.56,7.56,0,0,1-1.09,4,7.77,7.77,0,0,1-3,2.82,9.43,9.43,0,0,1-8.53,0Zm6.71-2.6a4.51,4.51,0,0,0,1.71-1.73,5.43,5.43,0,0,0,0-5,4.38,4.38,0,0,0-1.71-1.73,5.11,5.11,0,0,0-4.88,0,4.44,4.44,0,0,0-1.71,1.73,5.43,5.43,0,0,0,0,5,4.38,4.38,0,0,0,1.71,1.73,5.11,5.11,0,0,0,4.88,0Z"/><path class="cls-1" d="M1220.18,225.62h3.22v6.17a9.43,9.43,0,0,1-2.87,1.44,11.26,11.26,0,0,1-3.28.5,8.93,8.93,0,0,1-4.26-1,7.51,7.51,0,0,1-3-2.81,8.15,8.15,0,0,1,0-8.11,7.5,7.5,0,0,1,3-2.81,9.14,9.14,0,0,1,4.31-1,9.43,9.43,0,0,1,3.63.67,7.14,7.14,0,0,1,2.74,2l-2.26,2.09a5.22,5.22,0,0,0-3.94-1.72,5.36,5.36,0,0,0-2.59.61,4.41,4.41,0,0,0-1.76,1.72,5.4,5.4,0,0,0,0,5.06,4.41,4.41,0,0,0,1.75,1.73,5.24,5.24,0,0,0,2.56.62,5.77,5.77,0,0,0,2.74-.65v-4.45Z"/><path class="cls-1" d="M1234.57,228.07v5.39h-3.52V228l-5.89-9.79h3.74L1233,225l4.07-6.76h3.46Z"/></g></g></svg>